<?xml version="1.0" encoding="UTF-8"?>
<svg id="Layer_1" data-name="Layer 1" xmlns="http://www.w3.org/2000/svg" viewBox="0 0 2000 2000">
  <defs>
    <style>
      .cls-1, .cls-2 {
        fill: #fff;
      }

      .cls-1, .cls-3 {
        fill-rule: evenodd;
      }

      .cls-2 {
        font-family: The-Neue-Black, 'The Neue';
        font-size: 196.06px;
        font-weight: 800;
      }

      .cls-3 {
        fill: #8ca65d;
      }
    </style>
  </defs>
  <path class="cls-3" d="M1002.1,431.92c-18.42,10.71-36.75,21.53-55.18,32.24-50.75,29.43-101.97,58.17-154.55,84.27-88.3,43.86-180.23,80.37-276.16,103.64,4.18,41.27,10.64,82.26,19.37,122.8h20.47c-7.17-32.67-12.84-65.64-16.99-98.82l-1.13-8.78,8.57-2.29c88.18-23.67,173.09-58.07,254.78-98.64,52.95-26.32,104.56-55.24,155.68-84.92,13.36-7.75,26.66-15.59,39.99-23.36l5.15-3.02,5.12,3.02c13.33,7.78,26.63,15.62,39.99,23.36,51.15,29.68,102.76,58.59,155.71,84.92,81.65,40.57,166.6,74.97,254.75,98.64l8.57,2.29-1.1,8.78c-4.18,33.19-9.85,66.16-17.02,98.82h20.47c8.72-40.54,15.19-81.53,19.37-122.8-95.9-23.27-187.86-59.78-276.16-103.64-52.55-26.11-103.8-54.84-154.55-84.27-18.42-10.71-36.75-21.53-55.15-32.24h0Z"/>
  <path class="cls-3" d="M1002.1,1518.44c106.33-72.14,199.32-161.84,275.03-265.09h-24.89c-68.57,90.92-150.98,170.84-244.28,236.72l-5.86,4.15-5.89-4.15c-93.3-65.88-175.69-145.8-244.25-236.72h-24.92c75.7,103.25,168.7,192.95,275.06,265.09h0Z"/>
  <path class="cls-1" d="M1537.03,770.18h180.75l-117.86-33.12,1.95-12.99c8.54-57.01,13.12-114.59,13.73-172.24-123.07-15.46-238.7-57.59-349.51-112.64-50.27-24.95-99.1-52.4-147.6-80.55-38.64-22.42-77.14-45.54-116.39-66.86-39.29,21.32-77.75,44.44-116.39,66.86-48.53,28.15-97.36,55.6-147.59,80.55-110.81,55.05-226.44,97.18-349.54,112.64.61,57.65,5.19,115.23,13.73,172.24l1.95,12.99-117.86,33.12h180.78c-10.34-52-17.14-104.65-20.44-157.54l-.82-13.02,12.81-2.5c106.24-20.89,207.5-59.75,304.25-107.85,51.3-25.47,101.26-53.53,150.8-82.26,26.99-15.68,53.83-31.63,80.95-47.09l7.38-4.21,7.35,4.21c27.15,15.46,53.96,31.42,80.95,47.09,49.53,28.73,99.49,56.79,150.8,82.26,96.78,48.1,198.01,86.96,304.28,107.85l12.78,2.5-.79,13.02c-3.29,52.89-10.13,105.53-20.44,157.54h0Z"/>
  <path class="cls-1" d="M1399.25,1187.29c-95.44,164.16-228.91,302.94-389.16,404.96l-7.99,5.06-7.99-5.06c-160.25-102.03-293.76-240.81-389.19-404.96h-237.88l190.78,30.32,3.57,6.01c107.3,181.02,259.32,332.46,440.71,439.06,181.36-106.6,333.38-258.04,440.68-439.06l3.57-6.01,190.82-30.32h-237.91Z"/>
  <text class="cls-2" transform="translate(249.58 956.68)"><tspan x="0" y="0">IRONSHIELD </tspan><tspan x="-184.2" y="191.54">TECHNOLOGIES</tspan></text>
  <g>
    <polygon class="cls-1" points="1001.88 603.4 1017.23 651.1 1067.43 651.1 1026.77 680.14 1042.12 727.85 1001.88 698.4 961.64 727.85 976.99 680.14 936.75 651.1 986.53 651.1 1001.88 603.4"/>
    <polygon class="cls-1" points="1150.4 631.19 1162.84 669.77 1203.08 669.36 1170.31 693.42 1182.76 731.59 1150.4 707.94 1117.62 731.59 1130.07 693.42 1097.3 669.36 1137.95 669.77 1150.4 631.19"/>
    <polygon class="cls-1" points="1280.66 654.84 1291.03 686.78 1324.63 686.78 1297.25 706.28 1307.62 738.22 1280.66 718.72 1253.69 738.22 1264.06 706.28 1236.68 686.78 1270.29 686.78 1280.66 654.84"/>
    <polygon class="cls-1" points="853.78 631.19 841.34 669.77 800.68 669.36 833.46 693.42 821.01 731.59 853.78 707.94 886.56 731.59 873.7 693.42 906.47 669.36 866.23 669.77 853.78 631.19"/>
    <polygon class="cls-1" points="723.52 654.84 713.15 686.78 679.55 686.78 706.51 706.28 696.14 738.22 723.52 718.72 750.49 738.22 740.12 706.28 767.08 686.78 733.48 686.78 723.52 654.84"/>
  </g>
</svg>