<?xml version="1.0" encoding="UTF-8"?>
<svg id="Layer_1" xmlns="http://www.w3.org/2000/svg" version="1.1" viewBox="0 0 2000 2000">
  <!-- Generator: Adobe Illustrator 30.0.0, SVG Export Plug-In . SVG Version: 2.1.1 Build 123)  -->
  <defs>
    <style>
      .st0, .st1 {
        fill: #f1f2f2;
      }

      .st1 {
        font-family: GothamBold, 'Gotham Bold';
        font-size: 101.81px;
      }
    </style>
  </defs>
  <path class="st0" d="M320.22,1347.14v-256.89h242.26v256.89h110.45V422.62l-110.45,59.28-65.9,35.53-110.45,59.28-65.9,35.44-110.45,59.37v675.63h110.45ZM320.22,934.05v-196.45l65.9-35.44,110.45-59.37,65.9-35.35v372.35h-242.26v-45.75Z"/>
  <path class="st0" d="M1000,288.92l-231.52,132.99v925.23l4.05-.46,86.88-4.42c6.44-.37,12.98-.64,19.51-.83v-781.63l65.9,29.42v750.1c18.41-.46,36.72-.74,55.04-.74s36.91.18,55.41.65v-731.78l65.81-40.31v774.2c6.44.19,12.98.46,19.42.83l84.86,4.23,6.17.64V421.9l-231.52-132.99Z"/>
  <polygon class="st0" points="1297.46 788.02 1297.46 852.08 1361.51 852.08 1407.9 852.08 1407.9 607.27 1473.71 642.57 1473.71 852.08 1473.71 944.12 1473.71 964.27 1473.71 1034.59 1473.71 1054.56 1473.71 1146.6 1473.71 1322.04 1473.71 1347.14 1584.15 1347.14 1584.15 1287.57 1584.15 1146.6 1584.15 1054.56 1584.15 1034.59 1584.15 964.09 1584.15 944.12 1584.15 852.08 1584.15 701.84 1584.19 701.86 1650.05 737.18 1650.05 829.88 1696.25 829.88 1760.49 829.88 1760.49 787.93 1760.49 671.17 1650.05 611.89 1650.05 611.92 1641.34 607.25 1603.89 587.18 1584.19 576.6 1473.74 517.33 1407.85 481.98 1297.4 422.62 1297.4 547.97 1297.46 548 1297.46 788.02"/>
  <rect class="st0" x="1650.05" y="984.5" width="110.44" height="362.64"/>
  <polygon class="st0" points="1297.5 1292.94 1297.4 1292.94 1297.4 1347.14 1407.94 1347.14 1407.94 1306.47 1407.94 1141.15 1407.94 1094.95 1407.94 1049.21 1407.94 1049.12 1407.94 1005.62 1407.94 1005.53 1408.03 1005.53 1408.12 1005.44 1407.94 1005.44 1297.5 1005.44 1297.4 1005.44 1297.4 1049.12 1297.4 1141.15 1297.5 1141.15 1297.5 1205.39 1297.5 1292.94"/>
  <text class="st1" transform="translate(179.53 1507.41)"><tspan x="0" y="0">ADVANCED MANUFACTURING </tspan><tspan x="395.14" y="122.18">TECHNOLOGIES</tspan></text>
</svg>